<svg version="1.1" viewBox="0.0 0.0 597.0 452.0" fill="none" stroke="none" stroke-linecap="square" stroke-miterlimit="10" width="597" height="452" xmlns:xlink="http://www.w3.org/1999/xlink" xmlns="http://www.w3.org/2000/svg"><path fill="#ffffff" d="M0 0L597.0 0L597.0 452.0L0 452.0L0 0Z" fill-rule="nonzero"/><path fill="#4285f4" d="M298.5 22.6C351.3612 22.6 401.66522 45.3512 436.57312 85.04687L298.5 206.46666Z" fill-rule="nonzero"/><path fill="#f4b400" d="M289.9541 390.1346C190.18059 385.49225 112.361206 302.04703 114.683014 202.19257C117.00483 102.3381 198.61855 22.6 298.5 22.6L298.5 206.46666Z" fill-rule="nonzero"/><path fill="#db4437" d="M436.57312 85.04687C485.2943 140.45042 496.18024 219.61134 464.22253 286.10956C432.26483 352.6078 363.65314 393.56378 289.9541 390.1346L298.5 206.46666Z" fill-rule="nonzero"/><path fill="#ffffff" d="M328.87177 92.867966L326.04364 92.867966L326.04364 81.992966L322.66864 83.03984L322.66864 80.742966L328.55927 78.63359L328.87177 78.63359L328.87177 92.867966ZM335.8874 84.50859L337.3874 84.50859Q338.4655 84.50859 338.98114 83.97734Q339.49677 83.430466 339.49677 82.53984Q339.49677 81.680466 338.98114 81.211716Q338.4655 80.72734 337.5749 80.72734Q336.7624 80.72734 336.2155 81.180466Q335.66864 81.617966 335.66864 82.336716L332.8405 82.336716Q332.8405 81.211716 333.43427 80.336716Q334.04364 79.44609 335.12177 78.94609Q336.1999 78.44609 337.49677 78.44609Q339.7624 78.44609 341.04364 79.53984Q342.3249 80.617966 342.3249 82.50859Q342.3249 83.47734 341.7155 84.305466Q341.12177 85.117966 340.153 85.555466Q341.35614 85.992966 341.9499 86.85234Q342.54364 87.711716 342.54364 88.88359Q342.54364 90.774216 341.153 91.930466Q339.778 93.07109 337.49677 93.07109Q335.37177 93.07109 334.0124 91.94609Q332.66864 90.82109 332.66864 88.97734L335.49677 88.97734Q335.49677 89.774216 336.0905 90.28984Q336.6999 90.78984 337.5749 90.78984Q338.5749 90.78984 339.1374 90.25859Q339.7155 89.72734 339.7155 88.836716Q339.7155 86.711716 337.37177 86.711716L335.8874 86.711716L335.8874 84.50859ZM344.85614 96.430466L343.3874 95.66484L343.73114 95.024216Q344.3874 93.836716 344.41864 92.649216L344.41864 90.461716L346.79364 90.461716L346.778 92.41484Q346.778 93.50859 346.23114 94.60234Q345.6999 95.711716 344.85614 96.430466ZM349.43427 85.867966L350.24677 78.649216L358.2155 78.649216L358.2155 81.00859L352.55927 81.00859L352.2155 84.055466Q353.2155 83.524216 354.35614 83.524216Q356.3874 83.524216 357.528 84.78984Q358.68427 86.03984 358.68427 88.305466Q358.68427 89.680466 358.10614 90.774216Q357.528 91.867966 356.43427 92.47734Q355.35614 93.07109 353.8874 93.07109Q352.5905 93.07109 351.48114 92.555466Q350.3874 92.024216 349.74677 91.07109Q349.10614 90.117966 349.0749 88.91484L351.85614 88.91484Q351.9499 89.805466 352.48114 90.305466Q353.0124 90.78984 353.87177 90.78984Q354.8249 90.78984 355.3405 90.10234Q355.87177 89.41484 355.87177 88.149216Q355.87177 86.94609 355.2624 86.305466Q354.66864 85.649216 353.5749 85.649216Q352.5749 85.649216 351.9499 86.180466L351.68427 86.430466L349.43427 85.867966ZM369.7624 92.867966L360.0124 92.867966L360.0124 90.930466L364.60614 86.024216Q365.55927 84.992966 366.0124 84.22734Q366.4655 83.44609 366.4655 82.75859Q366.4655 81.805466 365.98114 81.274216Q365.5124 80.72734 364.62177 80.72734Q363.66864 80.72734 363.10614 81.38359Q362.55927 82.03984 362.55927 83.117966L359.73114 83.117966Q359.73114 81.82109 360.3405 80.75859Q360.9655 79.680466 362.0905 79.07109Q363.23114 78.44609 364.66864 78.44609Q366.87177 78.44609 368.0749 79.50859Q369.29364 80.555466 369.29364 82.492966Q369.29364 83.53984 368.74677 84.63359Q368.1999 85.72734 366.87177 87.180466L363.6374 90.586716L369.7624 90.586716L369.7624 92.867966ZM370.9655 81.38359Q370.9655 80.07109 371.80927 79.25859Q372.66864 78.44609 374.04364 78.44609Q375.4499 78.44609 376.29364 79.25859Q377.1374 80.055466 377.1374 81.430466L377.1374 82.13359Q377.1374 83.44609 376.29364 84.25859Q375.4499 85.055466 374.0749 85.055466Q372.68427 85.055466 371.8249 84.25859Q370.9655 83.44609 370.9655 82.07109L370.9655 81.38359ZM372.8405 82.13359Q372.8405 82.72734 373.18427 83.086716Q373.528 83.430466 374.0749 83.430466Q374.62177 83.430466 374.93427 83.07109Q375.2624 82.711716 375.2624 82.10234L375.2624 81.38359Q375.2624 80.78984 374.93427 80.430466Q374.62177 80.07109 374.04364 80.07109Q373.5124 80.07109 373.16864 80.430466Q372.8405 80.78984 372.8405 81.41484L372.8405 82.13359ZM377.7624 89.38359Q377.7624 88.055466 378.62177 87.25859Q379.48114 86.44609 380.85614 86.44609Q382.24677 86.44609 383.0905 87.242966Q383.9499 88.03984 383.9499 89.44609L383.9499 90.149216Q383.9499 91.44609 383.10614 92.25859Q382.278 93.07109 380.87177 93.07109Q379.4655 93.07109 378.60614 92.25859Q377.7624 91.44609 377.7624 90.10234L377.7624 89.38359ZM379.6374 90.149216Q379.6374 90.680466 379.98114 91.07109Q380.3405 91.44609 380.87177 91.44609Q382.05927 91.44609 382.05927 90.117966L382.05927 89.38359Q382.05927 88.78984 381.73114 88.44609Q381.403 88.086716 380.85614 88.086716Q380.30927 88.086716 379.9655 88.44609Q379.6374 88.78984 379.6374 89.41484L379.6374 90.149216ZM374.62177 91.805466L373.24677 91.055466L380.18427 79.94609L381.5749 80.69609L374.62177 91.805466Z" fill-rule="nonzero"/><path fill="#ffffff" d="M383.19418 259.34094L384.69418 259.34094Q385.7723 259.34094 386.28793 258.8097Q386.80356 258.26282 386.80356 257.3722Q386.80356 256.51282 386.28793 256.04407Q385.7723 255.5597 384.88168 255.5597Q384.06918 255.5597 383.5223 256.01282Q382.97543 256.45032 382.97543 257.16907L380.1473 257.16907Q380.1473 256.04407 380.74106 255.16907Q381.35043 254.27844 382.42856 253.77844Q383.50668 253.27844 384.80356 253.27844Q387.06918 253.27844 388.35043 254.3722Q389.63168 255.45032 389.63168 257.34094Q389.63168 258.3097 389.0223 259.13782Q388.42856 259.95032 387.4598 260.38782Q388.66293 260.82532 389.25668 261.6847Q389.85043 262.54407 389.85043 263.71594Q389.85043 265.60657 388.4598 266.76282Q387.0848 267.90344 384.80356 267.90344Q382.67856 267.90344 381.31918 266.77844Q379.97543 265.65344 379.97543 263.8097L382.80356 263.8097Q382.80356 264.60657 383.3973 265.1222Q384.00668 265.6222 384.88168 265.6222Q385.88168 265.6222 386.44418 265.09094Q387.0223 264.5597 387.0223 263.66907Q387.0223 261.54407 384.67856 261.54407L383.19418 261.54407L383.19418 259.34094ZM400.99106 255.0597L395.49106 267.70032L392.50668 267.70032L398.0223 255.76282L390.94418 255.76282L390.94418 253.48157L400.99106 253.48157L400.99106 255.0597ZM403.16293 271.26282L401.69418 270.4972L402.03793 269.85657Q402.69418 268.66907 402.72543 267.48157L402.72543 265.29407L405.10043 265.29407L405.0848 267.2472Q405.0848 268.34094 404.53793 269.4347Q404.00668 270.54407 403.16293 271.26282ZM417.06918 267.70032L407.31918 267.70032L407.31918 265.76282L411.91293 260.85657Q412.86606 259.82532 413.31918 259.0597Q413.7723 258.27844 413.7723 257.59094Q413.7723 256.63782 413.28793 256.10657Q412.81918 255.5597 411.92856 255.5597Q410.97543 255.5597 410.41293 256.21594Q409.86606 256.8722 409.86606 257.95032L407.03793 257.95032Q407.03793 256.65344 407.6473 255.59094Q408.2723 254.51282 409.3973 253.90344Q410.53793 253.27844 411.97543 253.27844Q414.17856 253.27844 415.38168 254.34094Q416.60043 255.38782 416.60043 257.32532Q416.60043 258.3722 416.05356 259.46594Q415.50668 260.5597 414.17856 262.01282L410.94418 265.41907L417.06918 265.41907L417.06918 267.70032ZM428.06918 267.70032L418.31918 267.70032L418.31918 265.76282L422.91293 260.85657Q423.86606 259.82532 424.31918 259.0597Q424.7723 258.27844 424.7723 257.59094Q424.7723 256.63782 424.28793 256.10657Q423.81918 255.5597 422.92856 255.5597Q421.97543 255.5597 421.41293 256.21594Q420.86606 256.8722 420.86606 257.95032L418.03793 257.95032Q418.03793 256.65344 418.6473 255.59094Q419.2723 254.51282 420.3973 253.90344Q421.53793 253.27844 422.97543 253.27844Q425.17856 253.27844 426.38168 254.34094Q427.60043 255.38782 427.60043 257.32532Q427.60043 258.3722 427.05356 259.46594Q426.50668 260.5597 425.17856 262.01282L421.94418 265.41907L428.06918 265.41907L428.06918 267.70032ZM429.2723 256.21594Q429.2723 254.90344 430.11606 254.09094Q430.97543 253.27844 432.35043 253.27844Q433.75668 253.27844 434.60043 254.09094Q435.44418 254.88782 435.44418 256.26282L435.44418 256.96594Q435.44418 258.27844 434.60043 259.09094Q433.75668 259.88782 432.38168 259.88782Q430.99106 259.88782 430.13168 259.09094Q429.2723 258.27844 429.2723 256.90344L429.2723 256.21594ZM431.1473 256.96594Q431.1473 257.5597 431.49106 257.91907Q431.8348 258.26282 432.38168 258.26282Q432.92856 258.26282 433.24106 257.90344Q433.56918 257.54407 433.56918 256.9347L433.56918 256.21594Q433.56918 255.6222 433.24106 255.26282Q432.92856 254.90344 432.35043 254.90344Q431.81918 254.90344 431.47543 255.26282Q431.1473 255.6222 431.1473 256.2472L431.1473 256.96594ZM436.06918 264.21594Q436.06918 262.88782 436.92856 262.09094Q437.78793 261.27844 439.16293 261.27844Q440.55356 261.27844 441.3973 262.07532Q442.25668 262.8722 442.25668 264.27844L442.25668 264.98157Q442.25668 266.27844 441.41293 267.09094Q440.5848 267.90344 439.17856 267.90344Q437.7723 267.90344 436.91293 267.09094Q436.06918 266.27844 436.06918 264.9347L436.06918 264.21594ZM437.94418 264.98157Q437.94418 265.51282 438.28793 265.90344Q438.6473 266.27844 439.17856 266.27844Q440.36606 266.27844 440.36606 264.95032L440.36606 264.21594Q440.36606 263.6222 440.03793 263.27844Q439.7098 262.91907 439.16293 262.91907Q438.61606 262.91907 438.2723 263.27844Q437.94418 263.6222 437.94418 264.2472L437.94418 264.98157ZM432.92856 266.63782L431.55356 265.88782L438.49106 254.77844L439.88168 255.52844L432.92856 266.63782Z" fill-rule="nonzero"/><path fill="#000000" d="M145.3951 205.07483L147.00447 205.07483L147.00447 207.35608L145.3951 207.35608L145.3951 210.4342L142.5826 210.4342L142.5826 207.35608L136.75447 207.35608L136.61385 205.57483L142.55135 196.21545L145.3951 196.21545L145.3951 205.07483ZM139.42635 205.07483L142.5826 205.07483L142.5826 200.0592L142.3951 200.38733L139.42635 205.07483ZM154.6451 204.7467Q153.55135 205.84045 152.06697 205.84045Q150.19197 205.84045 149.05135 204.54358Q147.92635 203.2467 147.92635 201.04358Q147.92635 199.65295 148.53572 198.4967Q149.1451 197.32483 150.23885 196.66858Q151.3326 196.01233 152.69197 196.01233Q154.09822 196.01233 155.19197 196.71545Q156.28572 197.41858 156.8951 198.7467Q157.50447 200.0592 157.5201 201.76233L157.5201 202.8092Q157.5201 206.35608 155.73885 208.38733Q153.97322 210.41858 150.73885 210.5592L150.03572 210.57483L150.03572 208.21545L150.66072 208.19983Q154.34822 208.04358 154.6451 204.7467ZM152.7701 203.66858Q153.4576 203.66858 153.94197 203.32483Q154.44197 202.96545 154.69197 202.48108L154.69197 201.3092Q154.69197 199.8717 154.1451 199.09045Q153.59822 198.29358 152.67635 198.29358Q151.8326 198.29358 151.28572 199.07483Q150.73885 199.84045 150.73885 201.01233Q150.73885 202.1842 151.2701 202.9342Q151.80135 203.66858 152.7701 203.66858ZM159.8951 213.9967L158.42635 213.23108L158.7701 212.59045Q159.42635 211.40295 159.4576 210.21545L159.4576 208.02795L161.8326 208.02795L161.81697 209.98108Q161.81697 211.07483 161.2701 212.16858Q160.73885 213.27795 159.8951 213.9967ZM173.80135 210.4342L164.05135 210.4342L164.05135 208.4967L168.6451 203.59045Q169.59822 202.5592 170.05135 201.79358Q170.50447 201.01233 170.50447 200.32483Q170.50447 199.3717 170.0201 198.84045Q169.55135 198.29358 168.66072 198.29358Q167.7076 198.29358 167.1451 198.94983Q166.59822 199.60608 166.59822 200.6842L163.7701 200.6842Q163.7701 199.38733 164.37947 198.32483Q165.00447 197.2467 166.12947 196.63733Q167.2701 196.01233 168.7076 196.01233Q170.91072 196.01233 172.11385 197.07483Q173.3326 198.1217 173.3326 200.0592Q173.3326 201.10608 172.78572 202.19983Q172.23885 203.29358 170.91072 204.7467L167.67635 208.15295L173.80135 208.15295L173.80135 210.4342ZM182.7076 196.07483L182.7076 198.38733L182.42635 198.38733Q180.5201 198.41858 179.34822 199.38733Q178.19197 200.35608 177.9576 202.07483Q179.0826 200.91858 180.81697 200.91858Q182.66072 200.91858 183.75447 202.2467Q184.84822 203.57483 184.84822 205.7467Q184.84822 207.13733 184.25447 208.26233Q183.66072 209.3717 182.55135 210.01233Q181.4576 210.63733 180.06697 210.63733Q177.81697 210.63733 176.44197 209.07483Q175.06697 207.4967 175.06697 204.90295L175.06697 203.88733Q175.06697 201.5592 175.92635 199.79358Q176.80135 198.02795 178.44197 197.0592Q180.0826 196.07483 182.23885 196.07483L182.7076 196.07483ZM179.9576 203.1842Q179.2701 203.1842 178.7076 203.54358Q178.16072 203.90295 177.8951 204.48108L177.8951 205.34045Q177.8951 206.76233 178.44197 207.5592Q179.00447 208.35608 180.00447 208.35608Q180.92635 208.35608 181.47322 207.63733Q182.03572 206.91858 182.03572 205.77795Q182.03572 204.60608 181.47322 203.90295Q180.91072 203.1842 179.9576 203.1842ZM186.00447 198.94983Q186.00447 197.63733 186.84822 196.82483Q187.7076 196.01233 189.0826 196.01233Q190.48885 196.01233 191.3326 196.82483Q192.17635 197.6217 192.17635 198.9967L192.17635 199.69983Q192.17635 201.01233 191.3326 201.82483Q190.48885 202.6217 189.11385 202.6217Q187.72322 202.6217 186.86385 201.82483Q186.00447 201.01233 186.00447 199.63733L186.00447 198.94983ZM187.87947 199.69983Q187.87947 200.29358 188.22322 200.65295Q188.56697 200.9967 189.11385 200.9967Q189.66072 200.9967 189.97322 200.63733Q190.30135 200.27795 190.30135 199.66858L190.30135 198.94983Q190.30135 198.35608 189.97322 197.9967Q189.66072 197.63733 189.0826 197.63733Q188.55135 197.63733 188.2076 197.9967Q187.87947 198.35608 187.87947 198.98108L187.87947 199.69983ZM192.80135 206.94983Q192.80135 205.6217 193.66072 204.82483Q194.5201 204.01233 195.8951 204.01233Q197.28572 204.01233 198.12947 204.8092Q198.98885 205.60608 198.98885 207.01233L198.98885 207.71545Q198.98885 209.01233 198.1451 209.82483Q197.31697 210.63733 195.91072 210.63733Q194.50447 210.63733 193.6451 209.82483Q192.80135 209.01233 192.80135 207.66858L192.80135 206.94983ZM194.67635 207.71545Q194.67635 208.2467 195.0201 208.63733Q195.37947 209.01233 195.91072 209.01233Q197.09822 209.01233 197.09822 207.6842L197.09822 206.94983Q197.09822 206.35608 196.7701 206.01233Q196.44197 205.65295 195.8951 205.65295Q195.34822 205.65295 195.00447 206.01233Q194.67635 206.35608 194.67635 206.98108L194.67635 207.71545ZM189.66072 209.3717L188.28572 208.6217L195.22322 197.51233L196.61385 198.26233L189.66072 209.3717Z" fill-rule="nonzero"/><path stroke="#ffffff" stroke-width="1.0" stroke-linejoin="round" stroke-linecap="round" d="M298.5 206.46666L298.5 22.6C351.3612 22.6 401.66522 45.3512 436.57312 85.04687" fill-rule="nonzero"/><path stroke="#ffffff" stroke-width="1.0" stroke-linejoin="round" stroke-linecap="round" d="M298.5 206.46666L436.57312 85.04687C485.2943 140.45042 496.18024 219.61134 464.22253 286.10956C432.26483 352.6078 363.65314 393.56378 289.9541 390.1346" fill-rule="nonzero"/><path stroke="#ffffff" stroke-width="1.0" stroke-linejoin="round" stroke-linecap="round" d="M298.5 206.46666L289.9541 390.1346C190.18059 385.49225 112.361206 302.04703 114.683014 202.19257C117.00483 102.3381 198.61855 22.6 298.5 22.6" fill-rule="nonzero"/><path fill="#4285f4" d="M127.5 417.4C127.5 420.7137 124.813705 423.4 121.5 423.4C118.186295 423.4 115.5 420.7137 115.5 417.4C115.5 414.0863 118.186295 411.4 121.5 411.4C124.813705 411.4 127.5 414.0863 127.5 417.4Z" fill-rule="nonzero"/><path fill="#666666" d="M145.32812 418.24374L139.70312 418.24374L139.70312 422.04062L146.29688 422.04062L146.29688 424.4L136.76562 424.4L136.76562 410.18124L146.28125 410.18124L146.28125 412.55624L139.70312 412.55624L139.70312 415.94687L145.32812 415.94687L145.32812 418.24374ZM151.75 420.50937L150.59375 420.50937L150.59375 424.4L147.76562 424.4L147.76562 413.8375L150.59375 413.8375L150.59375 417.80624L151.4375 417.80624L154.20312 413.8375L157.76562 413.8375L154.04688 418.91562L157.92188 424.4L154.29688 424.4L151.75 420.50937ZM175.75 415.99374L174.07812 415.99374L174.07812 421.10312Q174.07812 421.68124 174.29688 421.94687Q174.51562 422.19687 175.15625 422.19687Q175.59375 422.19687 175.98438 422.11874L175.98438 424.25937Q175.21875 424.50937 174.28125 424.50937Q171.3125 424.50937 171.25 421.50937L171.25 415.99374L168.5625 415.99374L168.5625 424.4L165.73438 424.4L165.73438 415.99374L164.01562 415.99374L164.01562 413.8375L175.75 413.8375L175.75 415.99374ZM177.42188 421.41562Q177.42188 419.61874 179.42188 418.9625Q178.57812 418.60312 178.09375 418.025Q177.60938 417.43124 177.60938 416.72812Q177.60938 415.29062 178.875 414.47812Q180.14062 413.65 182.32812 413.65Q184.29688 413.65 185.54688 414.55624Q186.79688 415.4625 186.79688 416.88437L183.96875 416.88437Q183.96875 416.38437 183.46875 416.0875Q182.98438 415.775 182.1875 415.775Q181.39062 415.775 180.90625 416.10312Q180.4375 416.41562 180.4375 416.94687Q180.4375 417.4625 180.875 417.75937Q181.3125 418.05624 182.1875 418.05624L184.01562 418.05624L184.01562 419.94687L182.15625 419.94687Q180.23438 419.9625 180.23438 421.2125Q180.23438 421.74374 180.76562 422.11874Q181.3125 422.47812 182.17188 422.47812Q183.07812 422.47812 183.60938 422.13437Q184.14062 421.79062 184.14062 421.275L186.95312 421.275Q186.95312 422.775 185.65625 423.69687Q184.35938 424.60312 182.32812 424.60312Q180.15625 424.60312 178.78125 423.72812Q177.42188 422.85312 177.42188 421.41562ZM193.42188 413.63437Q195.60938 413.63437 196.85938 415.13437Q198.10938 416.61874 198.10938 419.275L198.10938 419.4Q198.10938 421.82187 197.0 423.2125Q195.89062 424.60312 194.01562 424.60312Q192.42188 424.60312 191.42188 423.41562L191.42188 428.4625L188.60938 428.4625L188.60938 418.85312Q188.60938 416.4625 189.92188 415.05624Q191.23438 413.63437 193.42188 413.63437ZM191.42188 421.43124Q191.96875 422.32187 193.26562 422.32187Q194.25 422.32187 194.76562 421.5875Q195.28125 420.85312 195.28125 419.19687Q195.28125 417.61874 194.75 416.775Q194.23438 415.91562 193.28125 415.91562Q192.40625 415.91562 191.90625 416.72812Q191.42188 417.54062 191.42188 419.07187L191.42188 421.43124ZM202.6875 413.8375L202.67188 421.10312Q202.67188 421.68124 202.89062 421.94687Q203.125 422.19687 203.76562 422.19687Q204.1875 422.19687 204.57812 422.11874L204.57812 424.25937Q203.82812 424.50937 202.875 424.50937Q199.89062 424.50937 199.84375 421.49374L199.84375 413.8375L202.6875 413.8375ZM215.46875 416.10312L212.0 416.10312L212.0 421.19687Q212.0 421.775 212.20312 422.04062Q212.40625 422.30624 212.89062 422.30624Q213.34375 422.30624 213.84375 422.13437L214.14062 424.275Q213.29688 424.60312 212.3125 424.60312Q210.84375 424.60312 210.01562 423.775Q209.1875 422.94687 209.17188 421.2125L209.17188 416.10312L205.9375 416.10312L205.9375 413.8375L215.46875 413.8375L215.46875 416.10312ZM221.42188 413.63437Q223.60938 413.63437 224.85938 415.13437Q226.10938 416.61874 226.10938 419.275L226.10938 419.4Q226.10938 421.82187 225.0 423.2125Q223.89062 424.60312 222.01562 424.60312Q220.42188 424.60312 219.42188 423.41562L219.42188 428.4625L216.60938 428.4625L216.60938 418.85312Q216.60938 416.4625 217.92188 415.05624Q219.23438 413.63437 221.42188 413.63437ZM219.42188 421.43124Q219.96875 422.32187 221.26562 422.32187Q222.25 422.32187 222.76562 421.5875Q223.28125 420.85312 223.28125 419.19687Q223.28125 417.61874 222.75 416.775Q222.23438 415.91562 221.28125 415.91562Q220.40625 415.91562 219.90625 416.72812Q219.42188 417.54062 219.42188 419.07187L219.42188 421.43124ZM227.14062 419.025Q227.14062 417.44687 227.75 416.2125Q228.35938 414.97812 229.48438 414.30624Q230.625 413.63437 232.14062 413.63437Q234.28125 413.63437 235.625 414.94687Q236.98438 416.25937 237.14062 418.49374L237.15625 419.22812Q237.15625 421.65 235.79688 423.13437Q234.4375 424.60312 232.15625 424.60312Q229.875 424.60312 228.5 423.13437Q227.14062 421.66562 227.14062 419.15L227.14062 419.025ZM229.96875 419.22812Q229.96875 420.72812 230.53125 421.525Q231.09375 422.32187 232.15625 422.32187Q233.1875 422.32187 233.75 421.54062Q234.32812 420.74374 234.32812 419.025Q234.32812 417.54062 233.75 416.72812Q233.1875 415.91562 232.14062 415.91562Q231.09375 415.91562 230.53125 416.72812Q229.96875 417.54062 229.96875 419.22812ZM249.75 415.99374L248.07812 415.99374L248.07812 421.10312Q248.07812 421.68124 248.29688 421.94687Q248.51562 422.19687 249.15625 422.19687Q249.59375 422.19687 249.98438 422.11874L249.98438 424.25937Q249.21875 424.50937 248.28125 424.50937Q245.3125 424.50937 245.25 421.50937L245.25 415.99374L242.5625 415.99374L242.5625 424.4L239.73438 424.4L239.73438 415.99374L238.01562 415.99374L238.01562 413.8375L249.75 413.8375L249.75 415.99374ZM254.1875 413.8375L254.29688 415.13437Q255.45312 413.63437 257.32812 413.63437Q260.64062 413.63437 260.71875 417.43124L260.71875 428.44687L257.89062 428.44687L257.89062 417.55624Q257.85938 415.91562 256.29688 415.91562Q255.04688 415.91562 254.375 416.8375L254.375 424.4L251.5625 424.4L251.5625 413.8375L254.1875 413.8375ZM255.34375 408.75937L257.90625 408.75937L256.3125 412.13437L254.625 412.13437L255.34375 408.75937ZM267.0 413.63437Q268.98438 413.63437 270.15625 414.75937Q271.32812 415.88437 271.32812 417.775L268.67188 417.775Q268.67188 416.93124 268.21875 416.43124Q267.78125 415.91562 267.0 415.91562Q266.01562 415.91562 265.48438 416.68124Q264.95312 417.44687 264.95312 418.9625L264.95312 419.25937Q264.95312 420.47812 265.5 421.13437Q266.0625 421.79062 267.40625 422.16562Q268.75 422.54062 269.28125 422.8375Q269.82812 423.13437 270.09375 423.5875Q270.375 424.04062 270.39062 424.72812Q270.39062 425.50937 269.71875 426.4625Q269.0625 427.43124 268.1875 428.05624L266.70312 426.94687Q267.625 425.97812 267.60938 425.30624Q267.60938 424.60312 266.5625 424.35312Q264.25 423.75937 263.1875 422.57187Q262.14062 421.36874 262.10938 419.38437L262.10938 418.99374Q262.10938 417.41562 262.70312 416.19687Q263.29688 414.9625 264.40625 414.30624Q265.51562 413.63437 267.0 413.63437Z" fill-rule="nonzero"/><path fill="#db4437" d="M299.5 417.4C299.5 420.7137 296.81372 423.4 293.5 423.4C290.18628 423.4 287.5 420.7137 287.5 417.4C287.5 414.0863 290.18628 411.4 293.5 411.4C296.81372 411.4 299.5 414.0863 299.5 417.4Z" fill-rule="nonzero"/><path fill="#666666" d="M320.35938 424.4L317.40625 424.4L317.40625 412.55624L311.71875 412.55624L311.71875 424.4L308.79688 424.4L308.79688 410.18124L320.35938 410.18124L320.35938 424.4ZM324.29688 409.30624Q326.23438 409.30624 326.90625 410.9L331.01562 421.22812L331.17188 421.57187Q331.51562 422.275 332.01562 422.29062L332.21875 422.29062L332.375 422.275L332.39062 424.50937Q331.98438 424.57187 331.3125 424.57187Q330.23438 424.57187 329.54688 424.0875Q328.85938 423.60312 328.4375 422.50937L326.78125 417.93124L324.60938 424.4L321.5625 424.4L325.3125 414.07187L324.60938 412.4625Q324.40625 411.97812 324.10938 411.79062Q323.8125 411.5875 323.34375 411.5875L322.78125 411.61874L322.71875 409.50937Q323.40625 409.30624 324.29688 409.30624ZM336.1875 413.8375L336.29688 415.13437Q337.45312 413.63437 339.32812 413.63437Q342.64062 413.63437 342.71875 417.43124L342.71875 428.44687L339.89062 428.44687L339.89062 417.55624Q339.85938 415.91562 338.29688 415.91562Q337.04688 415.91562 336.375 416.8375L336.375 424.4L333.5625 424.4L333.5625 413.8375L336.1875 413.8375ZM337.34375 408.75937L339.90625 408.75937L338.3125 412.13437L336.625 412.13437L337.34375 408.75937ZM349.42188 413.63437Q351.60938 413.63437 352.85938 415.13437Q354.10938 416.61874 354.10938 419.275L354.10938 419.4Q354.10938 421.82187 353.0 423.2125Q351.89062 424.60312 350.01562 424.60312Q348.42188 424.60312 347.42188 423.41562L347.42188 428.4625L344.60938 428.4625L344.60938 418.85312Q344.60938 416.4625 345.92188 415.05624Q347.23438 413.63437 349.42188 413.63437ZM347.42188 421.43124Q347.96875 422.32187 349.26562 422.32187Q350.25 422.32187 350.76562 421.5875Q351.28125 420.85312 351.28125 419.19687Q351.28125 417.61874 350.75 416.775Q350.23438 415.91562 349.28125 415.91562Q348.40625 415.91562 347.90625 416.72812Q347.42188 417.54062 347.42188 419.07187L347.42188 421.43124ZM358.1875 413.8375L358.29688 415.13437Q359.45312 413.63437 361.32812 413.63437Q364.64062 413.63437 364.71875 417.43124L364.71875 428.44687L361.89062 428.44687L361.89062 417.55624Q361.85938 415.91562 360.29688 415.91562Q359.04688 415.91562 358.375 416.8375L358.375 424.4L355.5625 424.4L355.5625 413.8375L358.1875 413.8375ZM371.0 413.63437Q372.98438 413.63437 374.15625 414.75937Q375.32812 415.88437 375.32812 417.775L372.67188 417.775Q372.67188 416.93124 372.21875 416.43124Q371.78125 415.91562 371.0 415.91562Q370.01562 415.91562 369.48438 416.68124Q368.95312 417.44687 368.95312 418.9625L368.95312 419.25937Q368.95312 420.47812 369.5 421.13437Q370.0625 421.79062 371.40625 422.16562Q372.75 422.54062 373.28125 422.8375Q373.82812 423.13437 374.09375 423.5875Q374.375 424.04062 374.39062 424.72812Q374.39062 425.50937 373.71875 426.4625Q373.0625 427.43124 372.1875 428.05624L370.70312 426.94687Q371.625 425.97812 371.60938 425.30624Q371.60938 424.60312 370.5625 424.35312Q368.25 423.75937 367.1875 422.57187Q366.14062 421.36874 366.10938 419.38437L366.10938 418.99374Q366.10938 417.41562 366.70312 416.19687Q367.29688 414.9625 368.40625 414.30624Q369.51562 413.63437 371.0 413.63437Z" fill-rule="nonzero"/><path fill="#f4b400" d="M403.5 417.4C403.5 420.7137 400.81372 423.4 397.5 423.4C394.18628 423.4 391.5 420.7137 391.5 417.4C391.5 414.0863 394.18628 411.4 397.5 411.4C400.81372 411.4 403.5 414.0863 403.5 417.4Z" fill-rule="nonzero"/><path fill="#666666" d="M416.59375 410.18124L420.25 420.49374L423.89062 410.18124L427.73438 410.18124L427.73438 424.4L424.79688 424.4L424.79688 420.50937L425.07812 413.80624L421.25 424.4L419.23438 424.4L415.40625 413.80624L415.70312 420.50937L415.70312 424.4L412.76562 424.4L412.76562 410.18124L416.59375 410.18124ZM430.42188 421.41562Q430.42188 419.61874 432.42188 418.9625Q431.57812 418.60312 431.09375 418.025Q430.60938 417.43124 430.60938 416.72812Q430.60938 415.29062 431.875 414.47812Q433.14062 413.65 435.32812 413.65Q437.29688 413.65 438.54688 414.55624Q439.79688 415.4625 439.79688 416.88437L436.96875 416.88437Q436.96875 416.38437 436.46875 416.0875Q435.98438 415.775 435.1875 415.775Q434.39062 415.775 433.90625 416.10312Q433.4375 416.41562 433.4375 416.94687Q433.4375 417.4625 433.875 417.75937Q434.3125 418.05624 435.1875 418.05624L437.01562 418.05624L437.01562 419.94687L435.15625 419.94687Q433.23438 419.9625 433.23438 421.2125Q433.23438 421.74374 433.76562 422.11874Q434.3125 422.47812 435.17188 422.47812Q436.07812 422.47812 436.60938 422.13437Q437.14062 421.79062 437.14062 421.275L439.95312 421.275Q439.95312 422.775 438.65625 423.69687Q437.35938 424.60312 435.32812 424.60312Q433.15625 424.60312 431.78125 423.72812Q430.42188 422.85312 430.42188 421.41562ZM446.42188 413.63437Q448.60938 413.63437 449.85938 415.13437Q451.10938 416.61874 451.10938 419.275L451.10938 419.4Q451.10938 421.82187 450.0 423.2125Q448.89062 424.60312 447.01562 424.60312Q445.42188 424.60312 444.42188 423.41562L444.42188 428.4625L441.60938 428.4625L441.60938 418.85312Q441.60938 416.4625 442.92188 415.05624Q444.23438 413.63437 446.42188 413.63437ZM444.42188 421.43124Q444.96875 422.32187 446.26562 422.32187Q447.25 422.32187 447.76562 421.5875Q448.28125 420.85312 448.28125 419.19687Q448.28125 417.61874 447.75 416.775Q447.23438 415.91562 446.28125 415.91562Q445.40625 415.91562 444.90625 416.72812Q444.42188 417.54062 444.42188 419.07187L444.42188 421.43124ZM455.6875 413.8375L455.67188 421.10312Q455.67188 421.68124 455.89062 421.94687Q456.125 422.19687 456.76562 422.19687Q457.1875 422.19687 457.57812 422.11874L457.57812 424.25937Q456.82812 424.50937 455.875 424.50937Q452.89062 424.50937 452.84375 421.49374L452.84375 413.8375L455.6875 413.8375ZM463.75 420.50937L462.59375 420.50937L462.59375 424.4L459.76562 424.4L459.76562 413.8375L462.59375 413.8375L462.59375 417.80624L463.4375 417.80624L466.20312 413.8375L469.76562 413.8375L466.04688 418.91562L469.92188 424.4L466.29688 424.4L463.75 420.50937ZM474.1875 413.8375L474.29688 415.13437Q475.45312 413.63437 477.32812 413.63437Q480.64062 413.63437 480.71875 417.43124L480.71875 428.44687L477.89062 428.44687L477.89062 417.55624Q477.85938 415.91562 476.29688 415.91562Q475.04688 415.91562 474.375 416.8375L474.375 424.4L471.5625 424.4L471.5625 413.8375L474.1875 413.8375ZM475.34375 408.75937L477.90625 408.75937L476.3125 412.13437L474.625 412.13437L475.34375 408.75937Z" fill-rule="nonzero"/></svg>