<svg viewBox="0 0 67.26 65" xmlns="http://www.w3.org/2000/svg">
            <defs>
              <style>
                .cls-1 {
                  fill: #fdc906;
                }

                .cls-2 {
                  fill: #a4cc38;
                }

                .cls-3 {
                  fill: #47a5ad;
                }

                .cls-4 {
                  fill: #ea1c24;
                }

                .cls-5 {
                  fill: #f2801f;
                }

                .cls-6 {
                  fill: #9f228b;
                }

                .cls-7 {
                  fill: #a15641;
                }
              </style>
            </defs>
            <title>logotr</title>
            <g data-name="Layer 2" id="Layer_2">
              <g data-name="Layer 1" id="Layer_1-2">
                <g data-name="Layer 1-2" id="Layer_1-2-2">
                  <path class="cls-1" d="M10.89,34.62a2.78,2.78,0,0,1,1.82.83c2.32,2.41,4.38,6.54,6.9,9.3.93,1.56-2.19,4.2-3.57,5.4-2.71,2.16-4.81,3.25-6.3,3.25h-.1C8.36,53.26,8.59,48,9.92,48H10a7.16,7.16,0,0,0,1.79.25c2.74,0,3.66-2.07,3.22-4.15-.53-2.32-4-3.9-5.53-5.44C8.13,36.94,9.23,34.62,10.89,34.62Z"></path>
                  <path class="cls-2" d="M8.43,19c.79,0,1.56.56,1.75,1.89.26,2.84-.6,6.64-.43,9.84-.21,1.54-3.7,1.54-5.25,1.54a13.21,13.21,0,0,1-3.31-.46c-2.72-1.07-.06-4.06.94-4.06,1.16.08,2.63,2,3.7,2,.53,0,1-.48,1.25-2,.37-2-.55-4.71-.76-6.55A2.27,2.27,0,0,1,8.43,19Z"></path>
                  <path class="cls-2" d="M15.69,26.83a1.75,1.75,0,0,1,1.06.33c.64.46.57,1.29-.16,1.83a2.48,2.48,0,0,1-1.42.44,1.76,1.76,0,0,1-1-.31c-.64-.46-.57-1.29.16-1.84A2.59,2.59,0,0,1,15.69,26.83Z"></path>
                  <path class="cls-1" d="M19,31.39a1.66,1.66,0,0,1,1.32.72,6.21,6.21,0,0,1,0,4.45c-.83,2.81-.54,5.21,5.06,5.81,1.88.61,2.17,1.53.87,2.68a5.27,5.27,0,0,1-2.64.78h-.39c-2.12-.19-4.65-3-6.05-6.69-1-2.77-1.16-5-.11-6.64A2.74,2.74,0,0,1,19,31.39Z"></path>
                  <path class="cls-1" d="M23.31,36.27c.89,0,1.39.8,1.17,1.81a2.62,2.62,0,0,1-2.13,2h-.07c-.88,0-1.38-.8-1.16-1.83a2.58,2.58,0,0,1,2.12-2Z"></path>
                  <path class="cls-2" d="M15.34,21.3c1.08,0,1.75.54,1.73,1.56a5.16,5.16,0,0,1-2.38,2.91c-2,1.39-3.16,3.12.25,6.53.9,1.45.62,2.19-.88,2.24a4.39,4.39,0,0,1-2.4-1.17c-1.27-1.25-1.49-4.56-.42-7.64.81-2.33,1.95-3.87,3.49-4.38A4.07,4.07,0,0,1,15.34,21.3Z"></path>
                  <path class="cls-3" d="M15.26,16.24h.07A1.85,1.85,0,0,1,17,17.4c.16.59-.28,1.05-1,1.05h-.07a1.79,1.79,0,0,1-1.65-1.16C14.13,16.71,14.55,16.24,15.26,16.24Z"></path>
                  <path class="cls-3" d="M14.74,7.67c1.1,0,2,1,1.16,2.43-1.28,1.9-3.77,3.9-5.26,6a1,1,0,0,1-.63.22c-1.07,0-2.72-1.29-3.49-1.93-1.94-1.59-3-2.91-3.17-3.94,0-.57,1.38-1,2.48-1C6.5,9.45,7,9.61,7,10c0,2.24,1.08,3.14,2.24,3.14a2.73,2.73,0,0,0,1.16-.26c1.49-.68,2-3.24,2.85-4.51A2,2,0,0,1,14.74,7.67Z"></path>
                  <path class="cls-3" d="M17.52,12.54a3.38,3.38,0,0,1,1.09.19c1.06.6,1.37,1.41.74,2.17a3.77,3.77,0,0,1-2.32.66,3.42,3.42,0,0,1-.64,0h-.64c-1.7,0-2.91.79-2.51,4.28-.09.89-.37,1.33-.83,1.33a1.46,1.46,0,0,1-.85-.5,3.67,3.67,0,0,1-1-2c-.19-1.45,1.32-3.6,3.59-5A6.74,6.74,0,0,1,17.52,12.54Z"></path>
                  <path class="cls-4" d="M25.28,47.15h.38c3.88.51,8.73,2.86,13,3.59,1.16.46,1.39,2.33,1.16,4.2-.36,2.73-1.65,9.46-4.29,10.06h-.14c-1.43,0-4.21-4.55-3-5.09,4.78-2,2.9-4.83,2.8-5A5,5,0,0,0,34,53.47a6.77,6.77,0,0,0-4.23-1c-.62,0-1.26,0-1.88.06a16.26,16.26,0,0,1-1.71,0h-1C21.91,51.67,21.59,47.15,25.28,47.15Z"></path>
                  <path class="cls-4" d="M36.77,39.8A1.75,1.75,0,0,1,38.26,41a3.12,3.12,0,0,1-.5,3.4,1.36,1.36,0,0,1-.91.38,1.77,1.77,0,0,1-1.51-1.17,3.13,3.13,0,0,1,.51-3.39A1.39,1.39,0,0,1,36.77,39.8Z"></path>
                  <path class="cls-4" d="M29.59,38.35a2.49,2.49,0,0,1,.61.08c1.17.37,2.77,2.57,3.23,4.11.81,2,1.87,3.56,3.93,3.56a9.47,9.47,0,0,0,4.88-1.9,4.72,4.72,0,0,1,1.53-.29c1,0,1.46.72,1.17,2.19A6.08,6.08,0,0,1,42.72,49a5,5,0,0,1-2.78.69,15.09,15.09,0,0,1-7.47-2.5c-2.92-1.81-4.65-3.82-4.9-6C27.61,39.4,28.36,38.35,29.59,38.35Z"></path>
                  <path class="cls-5" d="M50.91,32.77a2.79,2.79,0,0,1,1.16.31,3.7,3.7,0,0,1,2,3.49A1.53,1.53,0,0,1,52.5,37.9a2.24,2.24,0,0,1-1.16-.31,3.62,3.62,0,0,1-2-3.48A1.54,1.54,0,0,1,50.91,32.77Z"></path>
                  <path class="cls-5" d="M60,41.7c2.19,0,4.48,4.54,5.56,6.62,1.26,2.64,2.62,9.06.83,9.17-.51,0-1,.06-1.42.06-5.46,0-4.43-2.62-4.37-2.76,2-4.72,0-7-3.3-7.11S51,51.74,48.49,53.3a4.07,4.07,0,0,1-1.64.36c-3,0-5.06-3.4-1.72-5.68,3.88-2.33,10-3.73,14.4-6.21A2.65,2.65,0,0,1,60,41.7Z"></path>
                  <path class="cls-5" d="M60.13,31.37c.6,0,1.16.5,1.72,1.52a7.06,7.06,0,0,1,.1,4.29c-.89,2.78-5.43,5.3-10.64,5.92a20.06,20.06,0,0,1-2.32.14c-2.81,0-5-.68-6.46-2.15-1.37-2-1.27-3.67.47-4.48a2.82,2.82,0,0,1,1-.15,10,10,0,0,1,4.88,1.64,7.79,7.79,0,0,0,3.73,1.28c2,0,3.92-1.53,5.45-6.16C58.75,32,59.45,31.37,60.13,31.37Z"></path>
                  <path class="cls-6" d="M21.13,9.4a1,1,0,0,1,.65.28,1.57,1.57,0,0,1,.5,1.7.64.64,0,0,1-.62.43.94.94,0,0,1-.64-.26,1.6,1.6,0,0,1-.52-1.67A.7.7,0,0,1,21.13,9.4Z"></path>
                  <path class="cls-6" d="M21.34,7.31a8.34,8.34,0,0,1,1,0,4.56,4.56,0,0,1,3.55,1.74c.38.95.18,1.67-.63,1.85h-.13A3.93,3.93,0,0,1,22.9,9.74a2.86,2.86,0,0,0-1.82-.94c-.77,0-1.59.57-2.54,2.13a1.49,1.49,0,0,1-.94.56c-.31,0-.54-.27-.71-.82a3.13,3.13,0,0,1,.38-1.82C17.78,7.89,19.44,7.31,21.34,7.31Z"></path>
                  <path class="cls-6" d="M17.56,0A3.92,3.92,0,0,1,19,.28c.41.21.53.63.36.85-1.6,1.94-.65,3.36.8,3.72a1.48,1.48,0,0,0,.42,0c1.27,0,2.76-1.16,3.85-1.57h.35c1.49,0,2.33,1.91.57,2.6s-4.53.64-6.69,1.26h-.06c-1,0-1.61-2.33-1.89-3.35-.34-1.52-.94-3-.33-3.48A1.94,1.94,0,0,1,17.56,0Z"></path>
                  <path class="cls-7" d="M29.27,8.24c.29,0,.55.23.65.63a1.35,1.35,0,0,1-.48,1.42.62.62,0,0,1-.32.09c-.29,0-.54-.23-.65-.63A1.34,1.34,0,0,1,29,8.35.79.79,0,0,1,29.27,8.24Z"></path>
                  <path class="cls-7" d="M27.82,5.84a6,6,0,0,1,3.6,1.7,4,4,0,0,1,1.64,3c-.16.67-.5,1-1,1a1,1,0,0,1-.42-.09,3.11,3.11,0,0,1-1.06-2c-.21-1-.62-1.87-1.8-1.87a4.78,4.78,0,0,0-1.86.47h-.39c-.64,0-.84-.35-.59-1.05a2.8,2.8,0,0,1,1.19-1.07A2,2,0,0,1,27.82,5.84Z"></path>
                  <path class="cls-7" d="M31.53.06a1.72,1.72,0,0,1,.94.22c.34.26.42,1.34,0,1.44-2.09.54-2.14,2-1.3,3s2.71.8,3.76,1.16c1.23.58,1.16,2.33-.17,2.33a2.65,2.65,0,0,1-.48-.07C32.67,7.6,30.8,6.23,29,5.57c-.79-.47,0-2.43.3-3.3s.5-1.68,1-1.94A2.73,2.73,0,0,1,31.53.06Z"></path>
                </g>
              </g>
            </g>
          </svg>
